<svg width="202" height="202" viewBox="0 0 202 202" fill="none" xmlns="http://www.w3.org/2000/svg">
<circle opacity="0.202683" r="101" transform="matrix(0 1 1 0 101 101)" fill="url(#paint0_linear_0_2333)"/>
<path d="M192.03 166.454H9.96957C9.77414 166.454 9.61572 166.295 9.61572 166.098C9.61572 165.902 9.77414 165.743 9.96957 165.743H192.03C192.226 165.743 192.384 165.902 192.384 166.098C192.384 166.295 192.226 166.454 192.03 166.454Z" fill="#D1D3D4"/>
<rect x="136.144" y="104.141" width="40.6428" height="70.0579" fill="white"/>
<path fill-rule="evenodd" clip-rule="evenodd" d="M136.144 174.554H176.787C176.883 174.554 176.975 174.514 177.042 174.445C177.109 174.375 177.144 174.281 177.141 174.184V104.14C177.141 103.944 176.982 103.785 176.787 103.785H136.144C135.949 103.785 135.79 103.944 135.79 104.14V174.198C135.79 174.395 135.949 174.554 136.144 174.554ZM176.433 173.843H136.498V104.496H176.433V173.843Z" fill="#231F20"/>
<rect x="24.1729" y="104.141" width="40.6428" height="70.0579" fill="white"/>
<path fill-rule="evenodd" clip-rule="evenodd" d="M24.1729 174.554H64.8157C64.9121 174.554 65.0043 174.514 65.0711 174.445C65.1378 174.375 65.1734 174.281 65.1696 174.184V104.14C65.1696 103.944 65.0111 103.785 64.8157 103.785H24.1729C23.9775 103.785 23.8191 103.944 23.8191 104.14V174.198C23.8191 174.395 23.9775 174.554 24.1729 174.554ZM64.4619 173.843H24.5268V104.496H64.4619V173.843Z" fill="#231F20"/>
<path d="M143.709 83.8262L151.756 100.047H129.994L143.709 83.8262Z" fill="#231F20"/>
<path fill-rule="evenodd" clip-rule="evenodd" d="M130.015 100.403H151.756C151.89 100.417 152.02 100.35 152.088 100.233C152.149 100.127 152.149 99.9974 152.088 99.8919L144.049 83.6706C143.995 83.5641 143.891 83.492 143.773 83.4787C143.655 83.46 143.536 83.5061 143.462 83.5995L129.746 99.8208C129.655 99.9239 129.633 100.072 129.69 100.197C129.75 100.323 129.876 100.403 130.015 100.403ZM151.182 99.6929H130.758L143.631 84.4735L151.182 99.6929Z" fill="#231F20"/>
<path d="M81.9065 100.048H133.717L152.513 72.3945H103.604L81.9065 100.048Z" fill="#231F20"/>
<path fill-rule="evenodd" clip-rule="evenodd" d="M81.8923 100.403H133.717C133.836 100.406 133.948 100.347 134.014 100.247L152.81 72.6004C152.881 72.4874 152.881 72.3439 152.81 72.2309C152.747 72.1161 152.629 72.0431 152.499 72.0391H103.59C103.482 72.0385 103.38 72.0884 103.314 72.1741L81.6163 99.8278C81.5323 99.9344 81.5164 100.08 81.5751 100.202C81.6338 100.325 81.7569 100.403 81.8923 100.403ZM133.554 99.6928H82.6353L103.774 72.7496H151.869L133.554 99.6928Z" fill="#231F20"/>
<path d="M105.161 75.0801L89.6769 95.2235H128.126L142.676 75.0801H105.161Z" fill="white"/>
<path fill-rule="evenodd" clip-rule="evenodd" d="M89.6769 95.5787H128.126C128.234 95.5737 128.333 95.5185 128.395 95.4294L142.945 75.286C143.015 75.173 143.015 75.0296 142.945 74.9166C142.887 74.7972 142.766 74.7224 142.634 74.7247H105.126C105.018 74.7241 104.916 74.774 104.85 74.8597L89.3585 95.0031C89.2915 95.1196 89.2915 95.2632 89.3585 95.3797C89.418 95.5017 89.5416 95.5789 89.6769 95.5787ZM127.906 94.8681H90.3988L105.338 75.421H141.982L127.906 94.8681Z" fill="#231F20"/>
<path d="M116.173 91.557C116.022 91.5559 115.889 91.4589 115.84 91.3154C113.979 85.8088 111.389 79.7694 110.448 79.6272C109.322 79.6272 102.104 85.617 95.6923 91.4717C95.5988 91.558 95.4665 91.5877 95.3452 91.5495C95.224 91.5113 95.1323 91.4111 95.1046 91.2866C95.0769 91.1621 95.1175 91.0322 95.2111 90.9459C97.4332 88.9209 108.48 78.9238 110.511 78.9238H110.589C112.401 79.2009 115.607 88.3028 116.548 91.088C116.579 91.1775 116.572 91.2758 116.53 91.3603C116.487 91.4447 116.412 91.5081 116.322 91.5357C116.275 91.5557 116.223 91.5631 116.173 91.557Z" fill="#D1D3D4"/>
<path d="M127.722 92.2964C127.563 92.2955 127.424 92.1879 127.383 92.0336C126.137 87.5928 124.361 82.8536 123.526 82.6049C122.691 82.3562 118.813 85.8733 115.656 89.2554C115.522 89.3986 115.297 89.405 115.154 89.2696C115.011 89.1342 115.005 88.9084 115.14 88.7651C116.753 87.0386 122.132 81.4467 123.731 81.9299C125.33 82.413 127.623 90.2714 128.062 91.8772C128.117 92.0656 128.009 92.2628 127.822 92.3178L127.722 92.2964Z" fill="#D1D3D4"/>
<path fill-rule="evenodd" clip-rule="evenodd" d="M137.538 85.1266C137.538 85.6595 138.225 86.0787 139.095 86.0787C139.965 86.0787 140.652 85.6595 140.652 85.1266C140.652 84.5937 139.944 84.1816 139.095 84.1816C138.246 84.1816 137.538 84.5937 137.538 85.1266ZM137.68 85.1266C137.68 84.7074 138.345 84.3593 139.095 84.3593V84.3806C139.845 84.3806 140.475 84.7074 140.475 85.1266C140.475 85.5459 139.881 85.9011 139.095 85.9011C138.309 85.9011 137.68 85.5459 137.68 85.1266Z" fill="#A7A9AC"/>
<path d="M145.28 78.0212H142.138C142.093 78.0178 142.057 77.9816 142.053 77.936C142.053 77.8876 142.09 77.8473 142.138 77.8436H145.28C145.304 77.8435 145.327 77.8535 145.343 77.871C145.359 77.8886 145.367 77.9121 145.365 77.936C145.365 77.9831 145.327 78.0212 145.28 78.0212Z" fill="#A7A9AC"/>
<path d="M133.717 100.403C133.641 100.404 133.567 100.381 133.504 100.339C133.349 100.221 133.315 100.001 133.426 99.8417L143.461 86.0149C143.517 85.9384 143.6 85.8871 143.693 85.8725C143.786 85.8578 143.881 85.8809 143.957 85.9367C144.112 86.0544 144.146 86.2743 144.035 86.4341L134 100.289C133.927 100.367 133.823 100.409 133.717 100.403Z" fill="white"/>
<path fill-rule="evenodd" clip-rule="evenodd" d="M114.616 78.6471C114.616 79.5105 115.313 80.2103 116.173 80.2103C117.033 80.2103 117.73 79.5105 117.73 78.6471C117.73 77.7838 117.033 77.084 116.173 77.084C115.313 77.084 114.616 77.7838 114.616 78.6471ZM115.324 78.6471C115.324 78.1762 115.704 77.7945 116.173 77.7945C116.399 77.7926 116.616 77.8818 116.775 78.0421C116.935 78.2024 117.024 78.4204 117.022 78.6471C117.022 79.118 116.642 79.4998 116.173 79.4998C115.704 79.4998 115.324 79.118 115.324 78.6471Z" fill="#D1D3D4"/>
<rect x="18.7733" y="100.651" width="159.74" height="6.79974" fill="white"/>
<path fill-rule="evenodd" clip-rule="evenodd" d="M18.7732 107.807H178.521C178.716 107.807 178.874 107.648 178.874 107.452V100.652C178.871 100.458 178.714 100.301 178.521 100.297H18.7732C18.5794 100.301 18.4231 100.458 18.4194 100.652V107.452C18.4194 107.648 18.5778 107.807 18.7732 107.807ZM178.138 107.097H19.1271V101H178.138V107.097Z" fill="#231F20"/>
<path d="M78.8563 137.436C79.0049 137.94 70.0668 170.155 70.0668 170.155L82.5575 172.173L97.32 127.666L78.8563 137.436Z" fill="white"/>
<path fill-rule="evenodd" clip-rule="evenodd" d="M82.5009 172.529H82.5575C82.7072 172.531 82.8413 172.436 82.8901 172.294L97.6597 127.787C97.7 127.649 97.6589 127.5 97.5535 127.403C97.4412 127.312 97.2862 127.296 97.1572 127.361L78.6935 137.13C78.5676 137.195 78.4924 137.33 78.5024 137.471C78.4034 138.537 73.2089 157.515 69.72 170.063C69.6979 170.162 69.713 170.266 69.7624 170.355C69.8193 170.439 69.9093 170.496 70.0101 170.511L82.5009 172.529ZM82.3311 171.776L70.5267 169.864H70.5126C75.8769 150.524 78.7855 139.717 79.1747 137.677L96.7255 128.398L82.3311 171.776Z" fill="#231F20"/>
<path d="M69.3096 168.763L67.4059 174.774L97.32 177.097C95.9153 174.257 93.4862 172.059 90.5262 170.951C87.4194 169.857 84.072 168.55 84.072 168.55L82.5576 172.173L69.3096 168.763Z" fill="#231F20"/>
<path fill-rule="evenodd" clip-rule="evenodd" d="M67.4059 175.13L97.32 177.453C97.4619 177.488 97.6101 177.428 97.688 177.304C97.7486 177.196 97.7486 177.064 97.688 176.956C96.2479 174.022 93.7433 171.754 90.689 170.618C88.4576 169.833 86.0842 168.925 84.9394 168.486C84.5084 168.322 84.2516 168.223 84.2419 168.223C84.1565 168.188 84.0607 168.189 83.9757 168.225C83.8907 168.261 83.8235 168.329 83.789 168.415L82.3736 171.755L69.4228 168.422C69.2418 168.375 69.0559 168.478 68.9982 168.657L67.0945 174.668C67.0617 174.771 67.078 174.884 67.1387 174.974C67.1994 175.064 67.2979 175.122 67.4059 175.13ZM96.7114 176.7L67.873 174.455L69.5431 169.211L82.4656 172.522C82.638 172.563 82.815 172.473 82.8831 172.309L84.2631 169.012C84.3009 169.026 84.3418 169.042 84.3855 169.059C85.4 169.446 87.991 170.434 90.413 171.286C93.0804 172.292 95.3101 174.209 96.7114 176.7Z" fill="#231F20"/>
<path d="M48.3123 137.862L46.1892 171.797C46.1892 171.797 39.0132 172.046 37.2157 173.31C35.4182 174.575 33.9532 180.302 33.9532 180.302H36.1896C36.1896 180.302 37.4917 176.039 38.9212 175.527C40.3508 175.016 48.4751 174.817 48.4751 174.817C48.4751 174.817 52.3957 176.337 53.0256 178.945C53.5209 180.998 53.3794 181.474 53.3794 181.474H55.8563C55.8503 180.306 55.6836 179.144 55.3609 178.021C54.8656 176.6 53.0043 174.902 53.0043 174.902C53.0043 174.902 57.1019 174.987 58.4677 174.987C59.8336 174.987 61.256 177.602 61.256 177.602H63.924C63.924 177.602 61.1357 172.884 59.3311 172.55C57.5265 172.216 52.8982 171.406 52.8982 171.406L51.6385 139.788L48.3123 137.862Z" fill="#231F20"/>
<path fill-rule="evenodd" clip-rule="evenodd" d="M53.4077 181.836H55.8846C56.0745 181.833 56.2276 181.679 56.2314 181.488C56.2282 180.285 56.0543 179.089 55.7148 177.936C55.2875 176.951 54.672 176.06 53.9031 175.314C54.1023 175.317 54.3266 175.321 54.5671 175.325C55.8808 175.347 57.6753 175.378 58.4889 175.378C59.324 175.378 60.4563 176.87 60.9658 177.808C61.0292 177.921 61.148 177.991 61.2772 177.993H63.9452C64.0745 177.991 64.1932 177.921 64.2566 177.808C64.3198 177.698 64.3198 177.562 64.2566 177.453C63.9664 176.955 61.3268 172.593 59.4301 172.237C57.9015 171.946 54.3064 171.321 53.2732 171.143L52.0206 139.809C52.0163 139.687 51.9492 139.577 51.8437 139.518L48.4892 137.578C48.3831 137.521 48.2557 137.521 48.1495 137.578C48.044 137.638 47.9752 137.747 47.9655 137.869L45.8849 171.491C44.4412 171.555 38.7018 171.889 37.0388 173.054C35.1563 174.376 33.6984 180.01 33.6418 180.245C33.6162 180.351 33.6396 180.463 33.7055 180.55C33.7714 180.637 33.8728 180.689 33.9815 180.693H36.2391C36.3956 180.69 36.5327 180.587 36.5788 180.437C37.06 178.866 38.1711 176.238 39.0911 175.896C40.2021 175.449 46.1609 175.236 48.4609 175.186C48.928 175.385 52.1763 176.813 52.7071 179.037C52.9494 179.792 53.0712 180.581 53.068 181.375C53.0347 181.483 53.0529 181.601 53.1175 181.694C53.1886 181.782 53.2948 181.834 53.4077 181.836ZM55.5095 181.126H53.7757C53.7132 180.356 53.5757 179.595 53.3652 178.852C52.7 176.095 48.7652 174.546 48.5954 174.483H48.4609C48.1283 174.483 40.1314 174.703 38.7868 175.193C37.4421 175.683 36.2815 178.945 35.956 179.946H34.4415C34.944 178.142 36.1754 174.497 37.4492 173.601C38.8504 172.642 44.2643 172.251 46.2317 172.18C46.4136 172.173 46.5606 172.029 46.5714 171.846L48.6308 138.452L51.32 140.008L52.5584 171.427C52.5631 171.598 52.6879 171.741 52.8557 171.768C52.9123 171.775 57.5052 172.571 59.2815 172.905C60.4704 173.125 62.3529 175.754 63.3012 177.254H61.4754C61.0932 176.593 59.8335 174.639 58.4818 174.639C57.3336 174.639 54.2297 174.577 53.2951 174.559C53.1294 174.556 53.0319 174.554 53.0255 174.554C52.8781 174.557 52.7459 174.646 52.6858 174.781C52.6352 174.918 52.6715 175.072 52.7778 175.172C52.7787 175.173 52.7824 175.176 52.7887 175.182C52.9402 175.323 54.6009 176.866 55.0424 178.142C55.329 179.111 55.4861 180.115 55.5095 181.126Z" fill="#231F20"/>
<path d="M89.231 116.22C89.231 116.22 117.496 117.733 119.28 121.776C121.063 125.819 107.957 170.277 107.957 170.277C107.957 170.277 121.792 175.08 119.527 176.089C117.263 177.098 94.6166 175.08 94.6166 175.08L105.352 133.869L77.3843 131.979L89.231 116.22Z" fill="white"/>
<path fill-rule="evenodd" clip-rule="evenodd" d="M94.6096 175.434C96.4284 175.598 109.33 176.727 115.968 176.727C117.224 176.805 118.485 176.7 119.711 176.415C119.989 176.327 120.176 176.067 120.171 175.775C120.115 174.319 112.189 171.37 108.431 170.056C109.719 165.686 121.375 125.605 119.627 121.633C119.329 120.958 118.431 118.919 103.647 117.129C96.4284 116.247 89.3373 115.864 89.2665 115.864C89.1483 115.849 89.0321 115.904 88.9693 116.006L77.1154 131.794C77.0343 131.897 77.0179 132.037 77.073 132.156C77.1314 132.27 77.243 132.348 77.3702 132.362L104.914 134.224L94.2982 174.987C94.2706 175.089 94.2887 175.198 94.3478 175.285C94.4092 175.371 94.5048 175.425 94.6096 175.434ZM119.407 175.761C117.659 176.543 101.651 175.342 95.0838 174.759L105.713 133.996C105.734 133.893 105.713 133.786 105.657 133.698C105.592 133.613 105.494 133.561 105.388 133.556L78.0708 131.701L89.3939 116.589C97.3342 117.022 117.532 118.706 118.947 121.925C120.363 125.143 111.247 157.856 107.624 170.184C107.567 170.366 107.664 170.56 107.843 170.624C113.123 172.45 118.94 174.901 119.407 175.761Z" fill="#231F20"/>
<path d="M79.6418 90.9527C79.6418 90.9527 94.1637 109.142 100.37 108.638C106.577 108.133 124.354 85.7091 124.354 85.7091C127.567 81.858 131.162 76.9696 128.862 71.6619C128.635 71.1504 128.239 70.6033 127.687 70.6459C127.455 70.6817 127.234 70.7717 127.043 70.9088L125.062 72.1309C125.125 71.5838 124.432 71.193 123.901 71.3422C123.384 71.545 122.954 71.9218 122.684 72.408C120.624 75.3496 119.294 78.1491 119.407 81.7727L98.6292 92.4306L90.3846 83.2719" fill="white"/>
<path d="M100.122 109C93.6754 109 79.9532 91.9475 79.3658 91.173C79.2641 91.0193 79.2965 90.813 79.4403 90.6982C79.5842 90.5834 79.7917 90.5983 79.9178 90.7325C80.0594 90.9101 94.0151 108.297 100.101 108.297H100.342C106.329 107.814 123.887 85.7233 124.057 85.4959C127.376 81.5312 130.723 76.8843 128.522 71.8183C128.437 71.6193 128.14 70.987 127.701 71.0154C127.524 71.0477 127.357 71.1207 127.213 71.2285L125.217 72.4435C125.102 72.515 124.957 72.5143 124.842 72.4418C124.728 72.3692 124.665 72.2375 124.679 72.1025C124.688 71.998 124.64 71.8969 124.552 71.8396C124.389 71.7086 124.177 71.6565 123.972 71.6975C123.536 71.8841 123.175 72.2117 122.946 72.6283C121.205 75.1151 119.612 77.943 119.733 81.7798C119.737 81.9167 119.663 82.0438 119.542 82.1067L98.7637 92.7646C98.6209 92.8383 98.4465 92.8062 98.3391 92.6864L90.1015 83.5135C90.0345 83.4468 89.9968 83.356 89.9968 83.2613C89.9968 83.1666 90.0345 83.0758 90.1015 83.0091C90.2415 82.8728 90.464 82.8728 90.604 83.0091L98.6575 91.9475L119.004 81.5383C118.94 77.6091 120.568 74.7172 122.344 72.1806C122.663 71.6259 123.163 71.1991 123.759 70.9727C124.195 70.8676 124.654 70.9757 124.998 71.2641C125.093 71.3474 125.174 71.4458 125.238 71.5554L126.824 70.582C127.063 70.4136 127.34 70.3063 127.63 70.2693C128.246 70.2196 128.791 70.6743 129.145 71.4985C131.707 77.3959 127.078 82.938 124.587 85.9151C123.88 86.8246 106.669 108.46 100.377 108.972L100.122 109Z" fill="#231F20"/>
<path d="M32.1062 87.8485C32.1062 87.8485 24.6258 104.866 27.4 106.685C30.1742 108.503 47.0597 106.685 47.0597 106.685L45.5948 84.6582" fill="white"/>
<path d="M33.8188 107.806C30.7969 107.806 28.1572 107.593 27.1948 106.954C26.7135 106.641 25.2415 105.682 28.3766 96.4665C29.884 92.0257 31.7594 87.7483 31.7806 87.7057C31.8213 87.5758 31.9325 87.4807 32.0667 87.4608C32.2009 87.441 32.3346 87.5 32.4109 87.6127C32.4871 87.7254 32.4924 87.8719 32.4246 87.9899C29.5938 94.4628 25.7581 105.17 27.584 106.357C29.7071 107.778 41.7378 106.84 46.6917 106.357L45.2763 84.6789C45.2626 84.4827 45.41 84.3125 45.6054 84.2987C45.8008 84.285 45.9703 84.4329 45.984 84.6291L47.4489 106.655C47.4613 106.847 47.3204 107.013 47.1305 107.032C46.6351 107.06 39.5015 107.806 33.8188 107.806Z" fill="#231F20"/>
<path d="M38.1994 116.688C38.1994 116.688 34.5406 124.845 38.44 129.989C42.3394 135.133 96.4708 135.752 96.4708 135.752L100.356 116.219L77.7098 113.121L76.3935 106.364L38.1994 116.688Z" fill="white"/>
<path fill-rule="evenodd" clip-rule="evenodd" d="M68.8849 135.155C82.784 135.943 96.3504 136.107 96.4849 136.107C96.6553 136.106 96.801 135.984 96.8317 135.816L100.674 116.262C100.695 116.168 100.675 116.069 100.618 115.992C100.563 115.909 100.475 115.855 100.377 115.843L78.0071 112.787L76.7403 106.272C76.7218 106.178 76.6655 106.095 76.5846 106.044C76.5015 105.988 76.3974 105.972 76.3015 106.002L38.0861 116.326C37.9818 116.352 37.8955 116.426 37.8526 116.525C37.6969 116.866 34.1584 124.937 38.1357 130.181C39.82 132.419 50.1664 134.089 68.8849 135.155ZM38.7231 129.776C35.2837 125.243 37.9941 118.116 38.4541 116.987L76.1671 106.805L77.4055 113.199C77.4342 113.348 77.5535 113.462 77.7027 113.484L99.9526 116.525L96.1947 135.403C77.448 135.176 41.7095 133.712 38.7231 129.776Z" fill="#231F20"/>
<path d="M60.3784 47.9735C59.8261 47.6407 59.345 47.2012 58.9631 46.6803C58.433 45.9174 58.049 45.062 57.8308 44.158C55.9129 37.1948 55.8988 28.2777 62.0769 23.5101C65.7745 20.6732 70.6126 19.8124 75.056 21.2009C78.0566 22.1814 80.6043 26.3238 81.9418 29.0167C83.0388 31.198 83.7818 33.5711 85.084 35.6317C86.3861 37.6922 88.4597 39.4969 90.8941 39.6177C88.9407 40.7151 86.595 40.8564 84.5249 40.0014C85.4978 41.3126 87.1441 41.932 88.7357 41.5859C87.3203 42.7156 85.2963 42.673 83.5129 42.2964C81.7295 41.9198 79.9744 41.3514 78.1415 41.5859C75.3108 41.9056 73.4708 43.9946 71.2557 45.508C68.4461 47.3554 63.5914 49.8422 60.3784 47.9735Z" fill="white"/>
<path fill-rule="evenodd" clip-rule="evenodd" d="M60.2157 48.2856C61.0791 48.7721 62.0566 49.0175 63.0464 48.9962C66.2593 48.9962 69.7978 46.8717 71.4467 45.7206C72.02 45.3227 72.572 44.8964 73.1098 44.4772C73.1797 44.424 73.2495 44.3708 73.3191 44.3177C74.8207 43.1725 76.2628 42.0727 78.1769 41.8554C79.521 41.781 80.868 41.9347 82.1612 42.3101L82.1612 42.3101C82.5858 42.4096 83.0104 42.5091 83.435 42.5872C85.827 43.049 87.6812 42.779 88.948 41.7772C89.0808 41.6742 89.1233 41.4915 89.0496 41.3401C88.9759 41.1886 88.8063 41.11 88.6437 41.1519C87.6934 41.3629 86.6986 41.1947 85.8695 40.683C87.6371 41.0155 89.4648 40.7164 91.0357 39.8375C91.1764 39.7632 91.247 39.6008 91.2055 39.4467C91.1704 39.2931 91.0368 39.1823 90.88 39.1767C87.9855 39.0346 86.0606 36.4625 85.3529 35.3612C84.5977 34.084 83.9446 32.7488 83.3997 31.368C83.0387 30.5083 82.6566 29.6201 82.232 28.7675C80.9793 26.2451 78.368 21.854 75.155 20.8096C70.5987 19.3763 65.6327 20.259 61.8433 23.1756C54.0941 29.1725 56.5569 40.7825 57.491 44.193C57.7185 45.15 58.1217 46.056 58.68 46.8646C59.0882 47.44 59.6112 47.924 60.2157 48.2856ZM62.2609 23.7654C64.7111 21.8835 67.7107 20.8646 70.7957 20.8664C72.2052 20.8596 73.607 21.0754 74.9498 21.5059C78.0353 22.5077 80.6467 27.1546 81.6233 29.1085C81.9822 29.7777 82.2769 30.479 82.5664 31.1681C82.6366 31.3352 82.7065 31.5015 82.7769 31.6664C83.3349 33.0832 84.0071 34.4519 84.7867 35.759C85.8646 37.6474 87.6101 39.06 89.6769 39.7167C88.0547 40.297 86.2768 40.2591 84.6806 39.6101C84.5358 39.545 84.3654 39.5893 84.2701 39.7167C84.1758 39.843 84.1758 40.0167 84.2701 40.143C84.9771 41.0943 86.0255 41.7315 87.1929 41.9193C86.015 42.1948 84.7898 42.1948 83.612 41.9193C83.2988 41.8607 82.9857 41.7901 82.6726 41.7195C82.5682 41.696 82.4638 41.6724 82.3593 41.6493C80.9813 41.2491 79.5449 41.0904 78.1132 41.1804C75.9123 41.429 74.2704 42.708 72.6852 43.9443C72.1615 44.3564 71.6166 44.7827 71.0646 45.1593C69.4652 46.2464 63.9806 49.6569 60.5695 47.6675C60.0515 47.3619 59.6011 46.9533 59.2461 46.4667C58.7375 45.7315 58.3703 44.9073 58.1633 44.0367C57.2504 40.7256 54.8655 29.4993 62.2609 23.7654Z" fill="#231F20"/>
<path d="M79.5569 42.9141C79.5569 42.9141 81.4889 48.982 80.4769 49.8417C79.4649 50.7014 77.363 49.3514 77.363 49.3514" fill="white"/>
<path d="M79.6206 50.4882C78.755 50.4138 77.9211 50.1258 77.1932 49.6498C77.0795 49.5847 77.0109 49.4619 77.0148 49.3305C77.0187 49.1992 77.0946 49.0807 77.212 49.0226C77.3294 48.9644 77.4691 48.9761 77.5753 49.0529C78.0707 49.3656 79.6206 50.14 80.2646 49.5716C80.7529 49.1524 80.123 45.8485 79.2172 43.0277C79.1615 42.8396 79.265 42.6412 79.4507 42.58C79.6363 42.5194 79.8359 42.6211 79.8966 42.8074C80.3636 44.2853 81.8144 49.2022 80.7246 50.1116C80.4162 50.3709 80.0224 50.5052 79.6206 50.4882Z" fill="#231F20"/>
<path d="M80.7316 35.9585C82.3806 38.3175 80.7316 41.8559 80.024 44.2646C79.0473 47.6561 77.9929 51.0217 76.8606 54.3611C76.1529 56.4927 70.5763 54.9509 69.7836 54.0343L68.2692 62.7809L56.5427 58.7096L60.3147 48.1014C60.3147 48.1014 64.0867 49.1956 67.4836 45.4227C70.8806 41.6498 73.2443 32.0293 73.2443 32.0293C73.2443 32.0293 79.1252 33.6493 80.7316 35.9585Z" fill="white"/>
<path fill-rule="evenodd" clip-rule="evenodd" d="M68.1489 63.1363H68.2622C68.3151 63.1324 68.3661 63.1153 68.4108 63.0865C68.5018 63.0369 68.5645 62.9476 68.5806 62.845L69.996 54.6597C71.6952 55.5481 73.619 55.9092 75.5231 55.6971C76.2424 55.634 76.8684 55.1777 77.1508 54.5105C78.2831 51.1781 79.3446 47.7747 80.3212 44.3997C80.4416 43.9947 80.5831 43.5613 80.7317 43.1065L80.7457 43.064C81.5145 40.7275 82.4425 37.9068 80.9794 35.7881C79.3443 33.4479 73.7279 31.8495 73.3039 31.7288C73.2967 31.7267 73.291 31.7251 73.2868 31.7239C73.2006 31.6884 73.104 31.6884 73.0179 31.7239C72.9353 31.7712 72.8763 31.8511 72.8551 31.9442C72.8551 32.0437 70.3923 41.6287 67.1936 45.1813C64.0505 48.672 60.6478 47.8273 60.3893 47.7631C60.3847 47.762 60.3811 47.7611 60.3785 47.7605C60.2011 47.7086 60.0144 47.8055 59.9539 47.9808L56.2102 58.6244C56.1783 58.714 56.1783 58.8119 56.2102 58.9015C56.2511 58.9868 56.3254 59.0511 56.4154 59.0792L68.1489 63.1363ZM67.9862 62.3121L56.9886 58.4894L60.5059 48.4994C61.532 48.6984 64.7449 48.9471 67.7102 45.6573C70.7957 42.2326 72.9896 34.2889 73.4637 32.4771C74.7517 32.8608 79.1394 34.3387 80.4132 36.1576C81.6711 37.9537 80.8037 40.6089 80.1003 42.7618L80.0736 42.8437C80.0253 42.9959 79.9771 43.1451 79.9298 43.2913C79.8315 43.5956 79.7373 43.8869 79.656 44.1652C78.6865 47.5331 77.6179 50.9223 76.4926 54.2405C76.3652 54.6242 75.9972 54.88 75.3886 55.0008C73.5911 55.356 70.5268 54.3897 70.0173 53.8C69.9279 53.6965 69.7873 53.6539 69.6558 53.6903C69.5244 53.7267 69.4254 53.8357 69.4016 53.9705L67.9862 62.3121Z" fill="#231F20"/>
<path d="M77.4904 51.8036C77.4904 51.8036 74.412 52.6846 73.7821 49.5654L77.4904 51.8036Z" fill="white"/>
<path d="M76.5493 52.2725C75.942 52.2881 75.3422 52.1357 74.8154 51.832C74.0521 51.3375 73.5368 50.5381 73.4 49.6365C73.3653 49.4422 73.4917 49.2558 73.6845 49.2171C73.8772 49.1784 74.0654 49.3016 74.1077 49.4944C74.2027 50.1946 74.5883 50.8219 75.1693 51.221C75.85 51.565 76.6315 51.6508 77.3702 51.4625C77.4966 51.4283 77.6316 51.4643 77.7244 51.5571C77.8172 51.6499 77.8536 51.7853 77.8199 51.9124C77.7863 52.0394 77.6877 52.1388 77.5613 52.1731C77.2292 52.2475 76.8894 52.2809 76.5493 52.2725Z" fill="#231F20"/>
<path d="M72.4588 43.263C72.6025 42.3859 72.5021 41.4859 72.1686 40.6625C71.9961 39.9975 71.7292 39.361 71.376 38.7725C71.0042 38.1849 70.393 37.7923 69.7059 37.6996C69.0885 37.6885 68.4968 37.9479 68.0853 38.4101C67.6721 38.8552 67.3669 39.3902 67.1936 39.9732C66.3606 42.5331 66.9454 45.3445 68.7293 47.3556L68.5948 47.0998" fill="white"/>
<path d="M68.7293 47.7106C68.6303 47.7096 68.5359 47.6686 68.4674 47.5969C66.5951 45.4791 65.9811 42.5236 66.8539 39.8308C67.0436 39.1963 67.3779 38.6148 67.8305 38.1327C68.3236 37.6087 69.0165 37.3217 69.7342 37.344C70.5318 37.4347 71.2439 37.8878 71.6662 38.5732C72.0421 39.189 72.3258 39.8569 72.5083 40.5556C72.8631 41.4408 72.966 42.4075 72.8056 43.3479C72.7537 43.5394 72.5581 43.6535 72.3668 43.6037C72.1799 43.5518 72.0694 43.3585 72.1191 43.1703C72.2377 42.3581 72.1375 41.5289 71.829 40.7687C71.6702 40.1373 71.4173 39.5337 71.0788 38.9782C70.7715 38.4702 70.2506 38.1302 69.6634 38.0545C69.1539 38.0447 68.6645 38.2541 68.3188 38.63C67.9424 39.0346 67.6639 39.5209 67.505 40.0511C66.7611 42.3362 67.1931 44.8429 68.6585 46.7442C68.758 46.7717 68.8422 46.8383 68.892 46.929L69.0194 47.1848C69.1042 47.343 69.0551 47.54 68.9062 47.6395C68.8554 47.68 68.7939 47.7047 68.7293 47.7106Z" fill="#231F20"/>
<ellipse cx="79.2965" cy="39.9856" rx="1.25739" ry="0.5" transform="rotate(-77.39 79.2965 39.9856)" fill="#231F20"/>
<path d="M69.7766 54.0339C68.239 53.0322 66.7664 51.9334 65.3676 50.7441C65.3676 50.7441 64.66 56.8973 68.8566 58.3112L69.7766 54.0339Z" fill="#231F20"/>
<path fill-rule="evenodd" clip-rule="evenodd" d="M68.7434 58.6664C68.7808 58.6732 68.8192 58.6732 68.8566 58.6664C68.9181 58.6664 68.9787 58.6518 69.0335 58.6238C69.1202 58.5728 69.1817 58.4878 69.2034 58.3893L70.1234 54.1262C70.1503 53.9828 70.089 53.8371 69.9677 53.7567C68.4438 52.7593 66.9831 51.6677 65.5942 50.4883C65.4924 50.4065 65.3551 50.3848 65.2332 50.4314C65.1131 50.4817 65.0293 50.593 65.0138 50.7227C64.9855 50.9856 64.3415 57.1814 68.7434 58.6664ZM68.6018 57.828C65.8843 56.6201 65.6862 52.9893 65.6862 51.4688C66.8694 52.4422 68.1024 53.3529 69.3803 54.1972L68.6018 57.828Z" fill="#231F20"/>
<path d="M36.0056 119.382C36.0056 119.382 36.6425 75.8973 43.1391 65.886C49.6357 55.8747 66.4929 53.6152 74.5323 59.5836C82.5717 65.552 78.7006 111.168 78.7006 111.168C78.7006 111.168 53.068 119.382 36.0056 119.382Z" fill="#E7816B"/>
<path d="M68.9203 57.0254C73.1966 58.7695 77.1933 61.1373 80.7812 64.0525C86.3437 68.6922 98.0843 88.6438 98.0843 88.6438L82.6 98.0583L68.7009 80.8493L68.9203 57.0254Z" fill="#E7816B"/>
<path d="M49.8339 59.7324C49.8339 59.7324 41.7308 60.649 37.4422 69.5803C35.1209 74.4261 29.1763 90.0719 29.1763 90.0719L47.0526 92.1395L49.8339 59.7324Z" fill="#E7816B"/>
<path d="M81.4394 96.971C81.3264 96.9705 81.2208 96.9148 81.1563 96.8218L67.3492 77.9431C67.2929 77.8677 67.2687 77.7729 67.282 77.6797C67.2953 77.5864 67.3449 77.5022 67.42 77.4457C67.5791 77.3335 67.7982 77.3681 67.9154 77.5239L81.7224 96.4025C81.8029 96.5102 81.8158 96.6542 81.7559 96.7746C81.6959 96.8949 81.5734 96.971 81.4394 96.971Z" fill="#231F20"/>
<path d="M122.655 75.6346L126.109 64.8701L127.185 65.1827L125.012 75.798C125.012 75.798 123.483 77.2759 122.655 75.6346Z" fill="#231F20"/>
<path fill-rule="evenodd" clip-rule="evenodd" d="M123.476 76.7636H123.717C124.294 76.7245 124.839 76.486 125.26 76.0886C125.31 76.0409 125.345 75.979 125.359 75.911L127.531 65.2531C127.568 65.072 127.461 64.8927 127.284 64.841L126.208 64.5284C126.023 64.4806 125.833 64.5823 125.769 64.7628L122.337 75.5415C122.302 75.628 122.302 75.725 122.337 75.8115C122.536 76.2986 122.963 76.6551 123.476 76.7636ZM123.568 76.046C123.324 75.986 123.119 75.8192 123.009 75.5913L126.314 65.3099L126.746 65.4307L124.658 75.6126C124.365 75.8941 123.974 76.0496 123.568 76.046Z" fill="#231F20"/>
<path d="M57.3495 51.2636C50.9803 49.8425 43.9034 50.8372 38.7584 54.8162C36.5781 56.414 34.94 58.6465 34.0664 61.2109C33.2263 63.8262 33.7183 66.689 35.3828 68.8704C40.2658 74.7607 50.9874 74.7323 57.6184 72.8067C62.1406 71.4994 75.5301 65.1188 71.8431 58.852C69.1892 54.3686 62.1264 52.2938 57.3495 51.2636Z" fill="#E7816B"/>
<path d="M49.2394 73.3396C45.0192 73.2167 40.8983 72.0265 37.2581 69.8793C37.1767 69.8308 37.1185 69.7511 37.0972 69.6585C37.0758 69.5659 37.093 69.4686 37.1449 69.3891C37.2506 69.2245 37.469 69.1768 37.6332 69.2825C37.7181 69.3393 46.4723 74.8033 54.7594 71.6485C58.7366 70.1351 61.1286 67.4493 63.4144 64.8559C65.9409 62.0138 68.3258 59.328 72.4446 58.9514C72.5385 58.9436 72.6317 58.9737 72.7034 59.035C72.7751 59.0964 72.8195 59.1839 72.8267 59.2783C72.8366 59.3718 72.8083 59.4654 72.7483 59.5377C72.6883 59.61 72.6017 59.6548 72.5083 59.6619C68.6726 60.0101 66.4787 62.5041 63.9452 65.3462C61.6947 67.8827 59.147 70.7533 55.007 72.3306C53.161 73.0142 51.2069 73.356 49.2394 73.3396Z" fill="#231F20"/>
<path d="M36.6425 103.842C36.5486 103.838 36.46 103.797 36.3963 103.728C36.3326 103.659 36.299 103.567 36.3028 103.473C36.8194 92.225 39.1336 76.0393 39.1336 75.8758C39.1661 75.6836 39.3444 75.5517 39.5369 75.5774C39.7274 75.6067 39.8595 75.7836 39.8342 75.9753C39.8342 76.1387 37.4917 92.3174 37.0034 103.501C36.9957 103.695 36.8352 103.846 36.6425 103.842Z" fill="#231F20"/>
<path d="M90.9154 174.319H105.954C105.954 174.319 107.589 170.66 111.113 170.155C111.113 170.155 124.828 175.974 122.811 177.168C120.794 178.362 89.8539 178.234 89.8539 178.234L90.9154 174.319Z" fill="#231F20"/>
<path fill-rule="evenodd" clip-rule="evenodd" d="M89.8468 178.596H93.0102C101.212 178.596 121.275 178.49 122.995 177.453C123.235 177.325 123.38 177.071 123.37 176.799C123.278 175.037 114.078 171.001 111.247 169.807C111.187 169.79 111.124 169.79 111.063 169.807C107.858 170.269 106.152 173.154 105.735 173.971H90.9154C90.7536 173.969 90.6108 174.077 90.5687 174.234L89.5071 178.149C89.4779 178.257 89.5016 178.373 89.5708 178.461C89.6369 178.547 89.7389 178.597 89.8468 178.596ZM122.634 176.863C121.233 177.694 102.72 177.921 90.3139 177.886L91.1844 174.674H105.954C106.093 174.676 106.221 174.595 106.279 174.468C106.294 174.433 107.851 171.044 111.063 170.518C116.64 172.891 122.634 175.982 122.634 176.863Z" fill="#231F20"/>
<path d="M79.5499 139.368C89.125 137.343 95.5437 132.845 91.7788 126.777C88.0139 120.71 60.9729 124.646 55.6865 120.148C50.4 115.651 52.2896 91.7982 46.4865 87.7127C40.6834 83.6272 15.808 79.499 13.0268 84.6574C10.2456 89.8159 13.0268 127.353 21.1299 135.687C29.2329 144.022 70.2083 141.301 79.5499 139.368Z" fill="#231F20"/>
<path fill-rule="evenodd" clip-rule="evenodd" d="M49.8622 141.749H51.4615C62.8483 141.749 74.7659 140.704 79.6419 139.624C86.74 138.125 91.3966 135.489 92.812 132.206C93.5763 130.43 93.3357 128.512 92.1043 126.522C89.9742 123.097 81.0785 122.735 72.48 122.387L72.4538 122.386C65.477 122.102 58.2737 121.809 55.9271 119.808C53.4575 117.698 52.5728 110.871 51.7166 104.263L51.7163 104.261L51.7123 104.23C50.7723 97.0069 49.8011 89.5433 46.6846 87.3509C41.7308 83.8835 23.9465 80.544 16.2539 82.3772C14.4139 82.8461 13.232 83.5495 12.7154 84.5087C9.7077 90.1148 12.8357 127.666 20.8468 135.965C25.3406 140.569 39.1052 141.656 49.8622 141.749ZM16.3954 83.1019C18.1176 82.7446 19.874 82.5802 21.6323 82.6116C30.1175 82.6116 42.4314 85.2903 46.2529 87.9974C49.1262 90.0082 50.0815 97.3693 50.9945 104.418C51.9074 111.466 52.7708 118.124 55.4459 120.412C57.9794 122.579 64.9997 122.863 72.4305 123.161L72.4547 123.162C80.8828 123.503 89.5514 123.854 91.4816 126.963C92.5855 128.746 92.8049 130.444 92.1397 132.007C90.8588 135.034 86.2446 137.592 79.472 139.013C70.0809 140.967 29.3179 143.639 21.3846 135.461C13.5859 127.417 10.5923 89.9443 13.3382 84.8498C13.7486 84.0753 14.7819 83.4856 16.3954 83.1019Z" fill="#231F20"/>
<path d="M97.32 119.737H97.2634L74.4474 115.729C74.252 115.696 74.1205 115.51 74.1537 115.314C74.1869 115.117 74.3723 114.985 74.5677 115.019L97.3837 119.026C97.5791 119.044 97.7233 119.217 97.7057 119.413C97.6881 119.61 97.5154 119.754 97.32 119.737Z" fill="#D1D3D4"/>
<path d="M163.1 166.368L162.392 166.29C162.392 166.084 164.622 145.514 157.531 136.377L158.09 135.943C161.147 139.88 162.923 146.203 163.355 154.737C163.551 158.615 163.466 162.502 163.1 166.368Z" fill="#231F20"/>
<path d="M160.658 168.99C160.647 168.751 160.671 168.512 160.729 168.28C162.421 157.515 159.554 152.499 156.851 150.183L157.311 149.643C160.142 152.073 163.171 157.302 161.43 168.393C161.387 168.663 161.359 168.841 161.359 168.912L160.658 168.99Z" fill="#231F20"/>
<path d="M156.986 145.614C156.413 145.277 155.766 145.087 155.103 145.06C153.914 144.889 152.707 145.22 151.77 145.976C151.536 146.204 151.331 146.587 151.543 146.836C151.669 146.951 151.827 147.026 151.996 147.049C152.938 147.319 153.674 148.058 153.942 149.003C153.454 148.641 153.037 148.179 152.527 147.817C152.056 147.42 151.45 147.221 150.836 147.262C150.171 147.42 149.585 147.814 149.187 148.371C148.73 148.862 148.35 149.42 148.062 150.026C147.76 150.635 147.671 151.328 147.807 151.994C148.453 151.808 149.13 151.762 149.795 151.859C150.268 151.902 150.718 152.088 151.083 152.392C151.194 152.478 151.273 152.598 151.31 152.733C151.334 153.019 151.143 153.278 150.864 153.337C150.594 153.401 150.313 153.401 150.043 153.337C149.466 153.219 148.882 153.136 148.295 153.089C148.075 153.06 147.852 153.075 147.637 153.131C147.119 153.422 146.836 154.006 146.929 154.595C146.919 154.836 147.008 155.07 147.177 155.242C147.467 155.469 147.885 155.305 148.224 155.163C148.817 154.915 149.451 154.78 150.093 154.765C150.165 154.759 150.238 154.771 150.305 154.801C150.377 154.852 150.425 154.931 150.436 155.019C150.447 155.107 150.42 155.196 150.362 155.263C150.242 155.397 150.084 155.489 149.909 155.526C149.423 155.68 148.926 155.797 148.422 155.874C148.132 155.917 147.793 155.98 147.651 156.243C147.596 156.359 147.57 156.485 147.573 156.613C147.545 157.577 147.822 158.525 148.366 159.32C148.454 159.464 148.569 159.59 148.706 159.689C148.9 159.793 149.115 159.851 149.335 159.86C151.02 160.035 152.721 159.791 154.289 159.149C154.371 159.121 154.442 159.069 154.494 159C154.586 158.837 154.431 158.645 154.31 158.503C153.787 157.856 153.907 156.925 154.056 156.108C154.068 155.95 154.132 155.799 154.24 155.682C154.445 155.543 154.723 155.586 154.877 155.782C155.02 155.976 155.101 156.208 155.11 156.449C155.215 157.29 155.147 158.144 154.912 158.958C155.727 158.767 156.521 158.496 157.283 158.148C157.899 157.908 158.48 157.585 159.01 157.188C159.542 156.785 159.915 156.207 160.064 155.554C160.096 155.433 160.083 155.305 160.029 155.192C159.974 155.114 159.901 155.051 159.816 155.007C159.078 154.528 158.497 153.841 158.146 153.032C158.075 152.861 158.04 152.627 158.196 152.542C158.262 152.52 158.334 152.52 158.401 152.542C159.293 152.691 159.746 153.693 160.482 154.225C160.54 154.274 160.611 154.304 160.687 154.311C160.778 154.311 160.866 154.272 160.927 154.204C161.223 153.928 161.424 153.565 161.501 153.167C161.714 152.385 161.67 151.555 161.373 150.801C161.064 150.045 160.428 149.472 159.646 149.245C159.285 149.161 158.91 149.144 158.542 149.195C158.415 149.195 157.736 149.437 157.644 149.351C157.552 149.266 157.913 148.754 157.998 148.584C158.458 147.532 157.842 146.182 156.986 145.614Z" fill="#231F20"/>
<path d="M167.679 139.184C166.551 139.174 165.491 139.725 164.848 140.655C164.419 141.398 164.245 142.262 164.353 143.113C164.463 143.955 164.667 144.782 164.961 145.579C165.517 144.578 166.528 143.916 167.665 143.81C168.818 143.71 167.474 144.826 167.275 145.06C166.624 145.828 166.002 146.616 165.386 147.412C165.206 147.611 165.085 147.858 165.039 148.123C165.037 148.408 165.121 148.688 165.28 148.925C165.759 149.991 166.487 150.924 167.403 151.647C167.656 151.869 168.013 151.927 168.323 151.796C168.466 151.676 168.574 151.518 168.634 151.341C168.973 150.627 169.414 149.966 169.943 149.38C170.071 149.231 170.276 149.082 170.439 149.188C170.602 149.295 170.573 149.458 170.559 149.615L170.411 151.199C170.312 151.77 170.346 152.356 170.51 152.911C170.885 153.92 172.017 154.425 173.071 154.624C173.359 154.702 173.662 154.702 173.949 154.624C174.515 154.425 174.749 153.75 174.848 153.153C174.959 152.371 175.28 151.635 175.775 151.021C175.904 152.054 176.233 153.051 176.744 153.956C177.001 154.443 177.355 154.871 177.785 155.214C178.242 155.54 178.767 155.758 179.32 155.853C180.254 156.022 181.205 156.074 182.151 156.009C182.806 156.017 183.458 155.933 184.09 155.761C184.727 155.582 185.273 155.168 185.619 154.603C186.178 153.594 185.746 152.293 185.024 151.398C184.303 150.503 183.326 149.835 182.576 148.961C183.512 149.219 184.383 149.675 185.131 150.297C185.309 150.502 185.567 150.621 185.838 150.624C185.963 150.597 186.076 150.532 186.164 150.439C187.282 149.316 185.994 147.419 185.399 146.41C185.083 145.692 184.521 145.112 183.814 144.776C183.396 144.669 182.958 144.669 182.54 144.776C181.903 144.883 178.747 146.325 180.092 144.428C180.825 143.577 181.902 143.104 183.022 143.142C183.567 143.191 184.395 143.632 184.38 142.609C184.342 142.242 184.2 141.894 183.97 141.607C183.532 140.95 183.06 140.316 182.555 139.71C182.429 139.524 182.24 139.39 182.024 139.333C181.836 139.327 181.65 139.379 181.493 139.483C180.202 140.267 178.776 140.803 177.289 141.06C176.95 141.06 176.475 140.953 176.532 140.619C176.566 140.498 176.644 140.394 176.751 140.328C177.65 139.618 178.995 139.923 179.915 139.269C180.192 139.092 180.376 138.801 180.417 138.474C180.417 137.998 180.028 137.621 179.646 137.33C178.691 136.497 177.52 135.953 176.27 135.759C174.409 135.61 172.732 136.839 171.479 138.239C171.062 138.715 170.771 139.951 170.127 139.873C169.721 139.729 169.324 139.561 168.939 139.369C168.531 139.241 168.106 139.179 167.679 139.184Z" fill="#231F20"/>
<path d="M158.663 129.35C158.583 128.631 158.255 127.962 157.736 127.46C156.787 126.593 155.365 126.551 154.098 126.749C153.148 126.953 152.216 127.231 151.31 127.581C150.397 127.844 150.128 128.05 150.942 128.796C151.515 129.314 153.065 131.169 152.357 132.057C151.649 132.945 150.461 130.679 150.001 130.302C149.4 129.714 148.603 129.372 147.764 129.343C147.03 129.469 146.356 129.827 145.839 130.366C145.288 130.856 144.763 131.375 144.268 131.922C144.188 132 144.125 132.095 144.084 132.199C143.971 132.611 144.53 132.853 144.948 132.91C146.144 133.13 147.481 133.755 147.722 134.949C146.49 135.254 145.33 134.004 144.07 134.139C143.141 134.363 142.385 135.037 142.053 135.937C141.713 136.736 141.608 137.616 141.749 138.473C142.812 138.103 143.951 138.005 145.061 138.189C145.199 138.197 145.33 138.255 145.429 138.352C145.534 138.551 145.462 138.797 145.266 138.907C145.074 139.003 144.857 139.04 144.643 139.013H142.591C142.39 138.992 142.188 139.039 142.018 139.148C141.879 139.292 141.799 139.481 141.791 139.681C141.659 140.623 141.647 141.578 141.756 142.523C141.773 143.11 142.001 143.671 142.4 144.101C142.72 144.343 143.094 144.504 143.49 144.569C144.526 144.819 145.587 144.953 146.653 144.967C146.179 144.301 146.06 143.444 146.335 142.672C146.759 141.678 147.481 142.253 147.517 143.156C147.517 143.582 147.439 144.001 147.425 144.427C147.417 144.508 147.432 144.589 147.467 144.662C147.51 144.717 147.566 144.761 147.63 144.79C148.193 145.095 148.848 145.181 149.47 145.031C149.647 144.996 149.814 144.921 149.958 144.811C150.287 144.417 150.399 143.884 150.255 143.39L149.965 140.825C149.933 140.704 149.959 140.575 150.036 140.477C150.163 140.349 150.39 140.477 150.524 140.576C151.052 141.048 151.334 141.737 151.289 142.445C151.289 142.85 151.119 143.241 151.09 143.639C151.032 144.047 151.193 144.455 151.515 144.712C151.856 144.876 152.249 144.896 152.605 144.768C153.078 144.699 153.515 144.471 153.843 144.122C154.125 143.674 154.21 143.128 154.077 142.616C153.936 142.111 153.836 141.595 153.78 141.074C153.78 140.022 154.855 138.516 155.032 140.363C155.039 140.966 155.004 141.57 154.926 142.168C154.909 142.245 154.909 142.325 154.926 142.402C155.021 142.529 155.172 142.601 155.329 142.594C156.162 142.667 156.998 142.505 157.743 142.125C158.256 141.875 158.706 141.51 159.059 141.059C159.321 140.689 159.541 140.291 159.717 139.873C160.573 138.047 161.939 136.619 160.347 134.665C159.802 133.997 158.79 133.819 158.281 133.137C157.679 132.327 158.606 131.041 158.641 130.025C158.666 129.801 158.673 129.575 158.663 129.35Z" fill="#231F20"/>
<path d="M153.56 164.237H171.606L170.191 177.837C169.98 179.906 168.243 181.478 166.171 181.475H158.96C156.891 181.475 155.158 179.903 154.947 177.837L153.56 164.237Z" fill="white"/>
<path fill-rule="evenodd" clip-rule="evenodd" d="M158.96 181.851H166.2C168.439 181.829 170.303 180.117 170.524 177.879L171.939 164.28C171.952 164.178 171.918 164.076 171.847 164.003C171.78 163.924 171.681 163.88 171.578 163.882H153.532C153.427 163.881 153.327 163.925 153.256 164.003C153.19 164.079 153.157 164.179 153.164 164.28L154.579 177.879C154.805 180.137 156.7 181.855 158.96 181.851ZM155.308 177.808L153.964 164.614H171.203L169.851 177.808C169.662 179.69 168.083 181.122 166.2 181.119H158.96C157.076 181.122 155.497 179.69 155.308 177.808Z" fill="#231F20"/>
<path d="M165.089 164.486C165.089 164.358 163.673 151.341 170.042 140.854L170.651 141.223C164.416 151.497 165.803 164.272 165.818 164.4L165.089 164.486Z" fill="#231F20"/>
<path d="M148.698 139.794C148.609 139.793 148.523 139.757 148.458 139.695C148.391 139.628 148.353 139.537 148.353 139.443C148.353 139.348 148.391 139.257 148.458 139.191C152.152 135.283 157.969 132.902 158.217 132.796C158.399 132.723 158.605 132.812 158.677 132.995C158.749 133.177 158.66 133.384 158.479 133.457C158.422 133.457 152.555 135.872 148.967 139.674C148.899 139.751 148.801 139.795 148.698 139.794Z" fill="white"/>
<path d="M151.19 157.899C151.067 157.898 150.953 157.833 150.889 157.727C150.826 157.621 150.822 157.49 150.878 157.38C152.22 154.849 153.923 152.527 155.931 150.488C155.996 150.421 156.086 150.384 156.179 150.384C156.272 150.384 156.361 150.421 156.426 150.488C156.561 150.626 156.561 150.848 156.426 150.986C154.476 152.975 152.822 155.237 151.515 157.7C151.453 157.823 151.327 157.9 151.19 157.899Z" fill="white"/>
<path d="M181.281 152.868C181.162 152.867 181.052 152.809 180.983 152.712C180.813 152.449 176.737 146.317 171.904 142.693C171.747 142.576 171.716 142.353 171.833 142.196C171.952 142.043 172.171 142.011 172.328 142.125C177.155 145.784 181.132 151.66 181.571 152.314C181.677 152.477 181.633 152.696 181.472 152.804C181.416 152.845 181.349 152.868 181.281 152.868Z" fill="white"/>
<rect x="136.441" y="29.4502" width="42.964" height="30.2826" fill="white"/>
<path fill-rule="evenodd" clip-rule="evenodd" d="M136.441 60.0879H179.398C179.594 60.0879 179.752 59.9288 179.752 59.7326V29.45C179.752 29.2538 179.594 29.0947 179.398 29.0947H136.441C136.246 29.0947 136.087 29.2538 136.087 29.45V59.7326C136.087 59.9288 136.246 60.0879 136.441 60.0879ZM179.044 59.3774H136.795V29.8053H179.044V59.3774Z" fill="#D1D3D4"/>
<path d="M164.169 88.4803C163.994 88.4796 163.845 88.3541 163.815 88.1819L162.074 76.8419L159.031 78.1919C158.944 78.2299 158.847 78.2318 158.759 78.1971C158.671 78.1624 158.601 78.0941 158.564 78.0072C158.526 77.9215 158.524 77.8243 158.559 77.7374C158.594 77.6505 158.662 77.5813 158.748 77.5453L162.222 76.039C162.32 75.9896 162.436 75.9896 162.534 76.039C162.631 76.0916 162.699 76.1858 162.718 76.2948L164.529 88.054C164.546 88.1476 164.523 88.2438 164.467 88.3203C164.411 88.3967 164.326 88.4469 164.232 88.459L164.169 88.4803Z" fill="#231F20"/>
<path d="M170.17 100.652H161.31L160.828 81.5029H170.651L170.17 100.652Z" fill="white"/>
<path fill-rule="evenodd" clip-rule="evenodd" d="M161.31 101H170.17C170.334 100.988 170.469 100.865 170.495 100.701L170.977 81.5169C170.973 81.3198 170.819 81.1586 170.623 81.1475H160.8C160.704 81.1503 160.612 81.1912 160.545 81.2611C160.48 81.3301 160.444 81.4219 160.446 81.5169L160.956 100.659C160.963 100.849 161.12 101 161.31 101ZM169.844 100.289H161.678L161.189 81.8509H170.304L169.844 100.289Z" fill="#231F20"/>
<rect x="159.93" y="79.5635" width="11.6203" height="1.93974" fill="white"/>
<path fill-rule="evenodd" clip-rule="evenodd" d="M159.93 81.8583H171.55C171.745 81.8583 171.904 81.6992 171.904 81.503V79.5633C171.904 79.3671 171.745 79.208 171.55 79.208H159.93C159.734 79.208 159.576 79.3671 159.576 79.5633V81.503C159.576 81.6992 159.734 81.8583 159.93 81.8583ZM171.196 81.1477H160.283V79.9185H171.196V81.1477Z" fill="#231F20"/>
<path fill-rule="evenodd" clip-rule="evenodd" d="M161.76 91.8209C162.533 93.3963 164.188 94.3351 165.931 94.1859C168.174 94.0822 169.912 92.1758 169.816 89.9227C169.81 88.1668 168.732 86.5944 167.1 85.9615C165.469 85.3286 163.618 85.7648 162.437 87.0603C161.257 88.3557 160.988 90.2455 161.76 91.8209ZM162.416 88.3288C163.079 87.0201 164.476 86.2559 165.931 86.4056C167.784 86.5088 169.205 88.0974 169.108 89.9582C169.101 91.4265 168.194 92.7388 166.827 93.2605C165.46 93.7822 163.914 93.4058 162.937 92.3134C161.96 91.2209 161.753 89.6375 162.416 88.3288Z" fill="#D1D3D4"/>
<path fill-rule="evenodd" clip-rule="evenodd" d="M146.505 53.2954C147.324 53.5816 148.185 53.7304 149.052 53.7359C151.027 53.6425 152.93 52.9652 154.523 51.7891C156.264 50.6593 157.028 49.5438 156.858 48.3785C156.686 47.6786 156.329 47.038 155.825 46.5241C155.391 46.1069 155.084 45.5747 154.94 44.9893C154.964 44.3257 155.18 43.6836 155.563 43.142C156.662 41.3462 156.771 39.1115 155.853 37.2162C154.82 35.2196 152.654 33.8909 149.909 33.5783C147.93 33.3819 145.977 34.1446 144.65 35.6317C143.44 37.0597 142.945 38.9645 143.306 40.8043C143.362 41.0885 143.433 41.3799 143.511 41.6783L143.519 41.7107C143.799 42.871 144.064 43.9661 143.362 44.7193C143.027 45.0176 142.644 45.2577 142.23 45.4299C141.607 45.6641 141.066 46.0766 140.673 46.6164C140.426 47.0717 140.341 47.5982 140.433 48.1085C140.687 49.5138 141.51 50.7507 142.704 51.5262L142.704 51.5262C142.938 51.6825 143.171 51.8388 143.412 51.9738C144.397 52.5147 145.433 52.9573 146.505 53.2954ZM146.731 52.6204C145.703 52.2957 144.71 51.8697 143.766 51.3485V51.3841C143.547 51.2551 143.334 51.1152 143.129 50.9649C142.097 50.301 141.379 49.2441 141.14 48.0375C141.072 47.6848 141.124 47.3191 141.289 47.0001C141.615 46.5825 142.052 46.265 142.549 46.0835C143.043 45.8712 143.495 45.5729 143.886 45.2025C144.855 44.1657 144.509 42.7528 144.205 41.51L144.205 41.5078C144.134 41.2235 144.063 40.9393 144.006 40.6693C143.688 39.0452 144.123 37.3639 145.188 36.1006C146.359 34.7825 148.087 34.1064 149.838 34.2817C152.343 34.573 154.31 35.7596 155.23 37.543C156.041 39.2487 155.923 41.2523 154.919 42.8506C154.472 43.5022 154.238 44.2766 154.247 45.0675C154.402 45.7924 154.763 46.4565 155.287 46.9788C155.704 47.3964 156.007 47.9154 156.165 48.4851C156.271 49.3449 155.634 50.2259 154.148 51.1993C152.06 52.528 149.718 53.6435 146.731 52.6204Z" fill="#D1D3D4"/>
<path fill-rule="evenodd" clip-rule="evenodd" d="M163.036 52.4287C164.712 53.1316 166.507 53.5054 168.323 53.53C169.379 53.5513 170.433 53.405 171.444 53.0966C173.586 52.4178 175.257 50.7216 175.909 48.5634C176.366 46.9095 175.922 45.1364 174.742 43.8953C172.59 41.5221 167.12 40.5771 164.289 41.5221C163.68 41.7392 163.084 41.9931 162.506 42.2824C161.623 42.7649 160.666 43.0962 159.675 43.2629C158.382 43.3155 157.092 43.1177 155.874 42.6803C154.176 42.1971 152.428 41.7068 150.786 42.4174C149.082 43.2592 148.121 45.1163 148.415 47.0003C148.655 48.5257 149.329 49.9493 150.354 51.1C151.562 52.6455 153.465 53.4741 155.414 53.3026C156.273 53.1528 157.103 52.8725 157.877 52.4713C159.313 51.494 161.177 51.4223 162.682 52.2866L163.036 52.4287ZM160.658 50.9721H160.489C159.481 51.0456 158.501 51.3365 157.615 51.8247C156.908 52.1933 156.149 52.4543 155.365 52.5992C153.242 52.8692 151.671 51.4766 150.921 50.631C149.975 49.5824 149.351 48.2823 149.123 46.8866C148.873 45.3209 149.652 43.771 151.055 43.0426C152.459 42.4191 154.011 42.8625 155.648 43.3299L155.662 43.3339C156.969 43.7995 158.353 44.007 159.738 43.945C160.798 43.7578 161.819 43.3952 162.76 42.8721C163.314 42.6004 163.883 42.3631 164.466 42.1616C167.056 41.2876 172.229 42.2042 174.168 44.3358C175.184 45.403 175.568 46.9265 175.18 48.3503C174.586 50.2724 173.088 51.7784 171.175 52.3789C168.558 53.101 165.772 52.8824 163.298 51.7608L162.958 51.6187C162.235 51.27 161.457 51.0512 160.658 50.9721Z" fill="#D1D3D4"/>
<path fill-rule="evenodd" clip-rule="evenodd" d="M164.806 47.1497C165.432 47.8775 166.362 48.2692 167.318 48.2084L167.764 48.2226C169.625 48.1804 171.427 47.5598 172.923 46.4463C175.768 44.1371 174.855 41.8563 174.055 40.7052C171.798 37.451 164.876 35.156 161.147 37.3586C159.782 38.1914 158.831 39.5642 158.528 41.1386C158.281 42.3406 158.568 43.5912 159.314 44.5634C159.983 45.349 160.953 45.8136 161.982 45.8423C162.554 45.8922 163.112 46.0438 163.631 46.29C164.064 46.5137 164.461 46.8038 164.806 47.1497ZM161.508 37.9342C162.509 37.3942 163.634 37.1294 164.77 37.1668C168.068 37.1668 171.96 38.8934 173.475 41.0818C174.6 42.7373 174.282 44.3929 172.477 45.8636C171.087 46.8654 169.431 47.4271 167.721 47.4765C166.819 47.6596 165.889 47.3357 165.294 46.631C164.46 45.7225 163.309 45.1727 162.081 45.0963C161.233 45.0869 160.43 44.7147 159.873 44.0731C159.25 43.268 159.014 42.2274 159.229 41.231C159.494 39.8595 160.321 38.663 161.508 37.9342Z" fill="#D1D3D4"/>
<path d="M59.3169 45.6216C59.3169 45.6216 61.6027 43.76 59.3169 41.3584H55.6298C55.6298 41.3584 56.4224 44.4634 55.6298 45.6216H59.3169Z" fill="#231F20"/>
<path fill-rule="evenodd" clip-rule="evenodd" d="M55.6298 45.9764H59.3169C59.3893 45.9709 59.4583 45.9437 59.5151 45.8982C60.1624 45.3371 60.5723 44.5495 60.6615 43.6956C60.6721 42.7151 60.2653 41.7767 59.5434 41.1164C59.4743 41.0508 59.3836 41.0129 59.2886 41.0098H55.6015C55.4916 41.0092 55.3874 41.0588 55.3185 41.1448C55.2555 41.2358 55.2325 41.3488 55.2548 41.4574C55.4671 42.2745 55.8846 44.5837 55.3114 45.415C55.2441 45.5289 55.2441 45.6706 55.3114 45.7845C55.3752 45.9015 55.497 45.9748 55.6298 45.9764ZM59.1754 45.2658H56.1818C56.3962 44.0887 56.3528 42.8788 56.0545 41.7203H59.14C59.6627 42.223 59.957 42.9191 59.9538 43.6458C59.8945 44.2616 59.6185 44.836 59.1754 45.2658Z" fill="#231F20"/>
<path d="M57.3141 44.2143C57.4228 43.374 57.1257 42.5321 56.5145 41.9478C56.2441 41.5946 55.9329 41.275 55.5874 40.9957C54.9237 40.5624 54.1801 40.2676 53.4006 40.1288C51.6809 39.7096 49.6711 40.2425 47.916 40.278C46.0307 40.3139 44.1577 39.9659 42.4101 39.2549C41.8097 39.0513 41.2712 38.6966 40.8461 38.2246C40.4074 40.8038 40.464 43.6459 41.9431 45.813C43.1963 47.4489 44.9289 48.6491 46.8969 49.2449C49.5605 50.3237 52.5961 49.8813 54.8443 48.0867C55.8535 47.3217 56.6324 46.2913 57.0948 45.1096C57.1973 44.8192 57.2708 44.5193 57.3141 44.2143Z" fill="white"/>
<path fill-rule="evenodd" clip-rule="evenodd" d="M46.7483 49.5791C47.7779 49.9584 48.8645 50.1579 49.9612 50.1688C51.8167 50.1557 53.6119 49.5064 55.0495 48.3286C56.1075 47.5203 56.925 46.4367 57.4132 45.1951C57.5343 44.8832 57.6221 44.5593 57.6751 44.2288C57.8047 43.288 57.4816 42.3413 56.8046 41.678C56.5116 41.3091 56.182 40.971 55.8209 40.6691C55.1171 40.2072 54.3275 39.893 53.4997 39.7454C52.2564 39.5285 50.9851 39.5285 49.7418 39.7454C49.6602 39.7545 49.5792 39.7637 49.4987 39.7729C48.9511 39.8352 48.429 39.8946 47.9231 39.8946C46.0804 39.9514 44.245 39.6399 42.5234 38.978C41.9829 38.7922 41.4966 38.4748 41.108 38.0543C41.0241 37.9429 40.882 37.8925 40.7471 37.9265C40.6125 37.9625 40.5105 38.0731 40.4852 38.2107C39.9261 41.4507 40.3083 44.0867 41.6317 46.0265C42.9247 47.7193 44.7144 48.9619 46.7483 49.5791ZM42.2191 45.6072C41.0797 43.9233 40.7117 41.7207 41.0797 38.9496C41.4363 39.2176 41.8235 39.4419 42.2332 39.6175C44.033 40.3382 45.9573 40.6932 47.8947 40.662C48.4584 40.6488 49.0585 40.5869 49.6388 40.527C49.685 40.5223 49.7312 40.5175 49.7772 40.5128C50.9481 40.3106 52.1448 40.3106 53.3157 40.5128C54.048 40.642 54.7478 40.9149 55.3751 41.3157C55.6961 41.5634 55.9902 41.8445 56.2526 42.1541C56.7895 42.6669 57.0522 43.4052 56.9603 44.1436C56.9095 44.4253 56.8313 44.7014 56.7267 44.9678C56.2917 46.0925 55.5573 47.0756 54.6037 47.8099C52.4455 49.5207 49.5403 49.9408 46.9889 48.9112C45.0924 48.3409 43.4234 47.1848 42.2191 45.6072Z" fill="#231F20"/>
<rect x="101" y="25.6914" width="30.0486" height="19.9232" fill="white"/>
<path fill-rule="evenodd" clip-rule="evenodd" d="M101 45.977H131.049C131.242 45.9732 131.399 45.8164 131.402 45.6217V25.6844C131.399 25.4897 131.242 25.3329 131.049 25.3291H101C100.805 25.3291 100.646 25.4882 100.646 25.6844V45.6217C100.646 45.8179 100.805 45.977 101 45.977ZM130.723 45.2665H101.326L101.354 26.0467H130.723V45.2665Z" fill="#D1D3D4"/>
<rect x="101" y="45.6211" width="30.0486" height="3.94342" fill="white"/>
<path fill-rule="evenodd" clip-rule="evenodd" d="M101 49.9205H131.049C131.244 49.9205 131.402 49.7615 131.402 49.5653V45.6219C131.402 45.4257 131.244 45.2666 131.049 45.2666H101C100.805 45.2666 100.646 45.4257 100.646 45.6219V49.5653C100.646 49.7615 100.805 49.9205 101 49.9205ZM130.723 49.21H101.326L101.354 45.9771H130.723V49.21Z" fill="#D1D3D4"/>
<path d="M104.439 40.9814C104.301 40.9868 104.173 40.9095 104.113 40.7845C104.053 40.6596 104.073 40.5108 104.163 40.4059C104.503 39.9796 112.656 29.9398 120.256 30.5438C123.285 30.7853 125.352 32.3769 125.79 34.8069C126.197 36.9461 125.12 39.0924 123.165 40.0364C121.042 41.024 119.074 41.0098 117.702 39.9938C116.487 39.0202 115.923 37.4422 116.244 35.9153C116.302 34.5902 117.192 33.4483 118.459 33.0732C119.763 32.728 121.152 33.1227 122.082 34.1035C122.512 34.5791 122.605 35.2715 122.316 35.8443C121.778 36.8888 121.141 37.4359 120.419 37.4643C119.266 37.4643 118.416 36.1498 118.381 36.093C118.332 36.0121 118.317 35.9147 118.339 35.8226C118.362 35.7306 118.42 35.6514 118.501 35.6027C118.581 35.5536 118.677 35.5387 118.767 35.5614C118.858 35.5841 118.935 35.6426 118.982 35.7235C119.166 36.0148 119.754 36.7893 120.398 36.7538C121.042 36.7182 121.403 36.0432 121.686 35.5174C121.846 35.1952 121.783 34.8062 121.53 34.5511C120.781 33.7869 119.683 33.4833 118.65 33.7553C117.66 34.0622 116.974 34.9678 116.944 36.0077C116.667 37.2737 117.121 38.5888 118.119 39.4111C119.273 40.2709 121.006 40.2638 122.868 39.4111C124.535 38.593 125.438 36.7448 125.062 34.9206C124.686 32.8388 122.861 31.4674 120.171 31.2543C112.974 30.6574 104.793 40.7469 104.715 40.8535C104.647 40.9348 104.546 40.9816 104.439 40.9814Z" fill="#D1D3D4"/>
<path fill-rule="evenodd" clip-rule="evenodd" d="M104.595 64.1446H116.173C116.368 64.1446 116.527 63.9856 116.527 63.7894V54.5525C116.527 54.3563 116.368 54.1973 116.173 54.1973H104.595C104.4 54.1973 104.241 54.3563 104.241 54.5525V63.7894C104.241 63.9856 104.4 64.1446 104.595 64.1446ZM115.819 63.4341H104.949V54.9078H115.819V63.4341Z" fill="#D1D3D4"/>
<path d="M110.384 56.2367C110.189 56.2367 110.03 56.0776 110.03 55.8814V53.6717C110.03 53.4755 110.189 53.3164 110.384 53.3164C110.579 53.3164 110.738 53.4755 110.738 53.6717V55.8672C110.742 55.9639 110.706 56.0579 110.639 56.1276C110.573 56.1974 110.48 56.2367 110.384 56.2367Z" fill="#D1D3D4"/>
<defs>
<linearGradient id="paint0_linear_0_2333" x1="0" y1="202" x2="202" y2="202" gradientUnits="userSpaceOnUse">
<stop stop-color="#5D0202" stop-opacity="0.01"/>
<stop offset="1" stop-color="#5D0202" stop-opacity="0.497569"/>
</linearGradient>
</defs>
</svg>
